<mxfile host="app.diagrams.net" modified="2024-07-11T18:18:28.233Z" agent="Mozilla/5.0 (Windows NT 10.0; Win64; x64) AppleWebKit/537.36 (KHTML, like Gecko) Chrome/126.0.0.0 Safari/537.36" etag="FdVjKxdYc-XtdsrVMrsl" version="24.4.0" type="device">
  <diagram name="Page-1" id="17xLx5Jpj_yAPQxF6Sxz">
    <mxGraphModel dx="1083" dy="610" grid="1" gridSize="10" guides="1" tooltips="1" connect="1" arrows="1" fold="1" page="1" pageScale="1" pageWidth="850" pageHeight="1100" math="0" shadow="0">
      <root>
        <mxCell id="0" />
        <mxCell id="1" parent="0" />
        <mxCell id="EuqJdyhRISb5Iu6oAzzc-5" value="" style="rounded=0;whiteSpace=wrap;html=1;dashed=1;strokeColor=#ffffff;" parent="1" vertex="1">
          <mxGeometry x="20" y="10" width="700" height="510" as="geometry" />
        </mxCell>
        <mxCell id="ru2hNwoar7phW9bpmIqV-1" value="&lt;div&gt;Usuario registrado&lt;/div&gt;" style="shape=umlActor;verticalLabelPosition=bottom;verticalAlign=top;html=1;outlineConnect=0;" parent="1" vertex="1">
          <mxGeometry x="60" y="161" width="30" height="60" as="geometry" />
        </mxCell>
        <mxCell id="ru2hNwoar7phW9bpmIqV-2" value="&lt;div&gt;Usuario anónimo&lt;/div&gt;" style="shape=umlActor;verticalLabelPosition=bottom;verticalAlign=top;html=1;outlineConnect=0;" parent="1" vertex="1">
          <mxGeometry x="60" y="330" width="30" height="60" as="geometry" />
        </mxCell>
        <mxCell id="ru2hNwoar7phW9bpmIqV-3" value="&lt;div&gt;Administrador&lt;/div&gt;" style="shape=umlActor;verticalLabelPosition=bottom;verticalAlign=top;html=1;outlineConnect=0;" parent="1" vertex="1">
          <mxGeometry x="660" y="267" width="30" height="60" as="geometry" />
        </mxCell>
        <mxCell id="ru2hNwoar7phW9bpmIqV-4" value="" style="rounded=0;whiteSpace=wrap;html=1;fillColor=none;" parent="1" vertex="1">
          <mxGeometry x="210" y="20" width="330" height="480" as="geometry" />
        </mxCell>
        <mxCell id="ru2hNwoar7phW9bpmIqV-7" value="cerrar sesión" style="ellipse;whiteSpace=wrap;html=1;" parent="1" vertex="1">
          <mxGeometry x="280" y="114" width="80" height="30" as="geometry" />
        </mxCell>
        <mxCell id="ru2hNwoar7phW9bpmIqV-11" value="" style="endArrow=none;html=1;rounded=0;exitX=0.5;exitY=0.5;exitDx=0;exitDy=0;exitPerimeter=0;entryX=0;entryY=0.5;entryDx=0;entryDy=0;" parent="1" source="ru2hNwoar7phW9bpmIqV-1" target="ru2hNwoar7phW9bpmIqV-7" edge="1">
          <mxGeometry width="50" height="50" relative="1" as="geometry">
            <mxPoint x="135" y="160" as="sourcePoint" />
            <mxPoint x="290" y="105" as="targetPoint" />
          </mxGeometry>
        </mxCell>
        <mxCell id="ru2hNwoar7phW9bpmIqV-16" value="registrar usuario" style="ellipse;whiteSpace=wrap;html=1;" parent="1" vertex="1">
          <mxGeometry x="280" y="394" width="80" height="30" as="geometry" />
        </mxCell>
        <mxCell id="ru2hNwoar7phW9bpmIqV-17" value="" style="endArrow=none;html=1;rounded=0;exitX=0.5;exitY=0.5;exitDx=0;exitDy=0;exitPerimeter=0;entryX=0;entryY=0.5;entryDx=0;entryDy=0;" parent="1" source="ru2hNwoar7phW9bpmIqV-2" target="ru2hNwoar7phW9bpmIqV-16" edge="1">
          <mxGeometry width="50" height="50" relative="1" as="geometry">
            <mxPoint x="170" y="470" as="sourcePoint" />
            <mxPoint x="285" y="415" as="targetPoint" />
          </mxGeometry>
        </mxCell>
        <mxCell id="ru2hNwoar7phW9bpmIqV-19" value="visualizar jugadores" style="ellipse;whiteSpace=wrap;html=1;" parent="1" vertex="1">
          <mxGeometry x="280" y="221" width="80" height="40" as="geometry" />
        </mxCell>
        <mxCell id="ru2hNwoar7phW9bpmIqV-21" value="" style="endArrow=none;html=1;rounded=0;exitX=0.5;exitY=0.5;exitDx=0;exitDy=0;exitPerimeter=0;entryX=0;entryY=0.5;entryDx=0;entryDy=0;" parent="1" source="ru2hNwoar7phW9bpmIqV-2" target="ru2hNwoar7phW9bpmIqV-19" edge="1">
          <mxGeometry width="50" height="50" relative="1" as="geometry">
            <mxPoint x="185" y="370" as="sourcePoint" />
            <mxPoint x="290" y="295" as="targetPoint" />
          </mxGeometry>
        </mxCell>
        <mxCell id="ru2hNwoar7phW9bpmIqV-22" value="" style="endArrow=none;html=1;rounded=0;exitX=0.5;exitY=0.5;exitDx=0;exitDy=0;exitPerimeter=0;entryX=0;entryY=0.5;entryDx=0;entryDy=0;" parent="1" source="ru2hNwoar7phW9bpmIqV-1" target="ru2hNwoar7phW9bpmIqV-19" edge="1">
          <mxGeometry width="50" height="50" relative="1" as="geometry">
            <mxPoint x="195" y="370" as="sourcePoint" />
            <mxPoint x="300" y="295" as="targetPoint" />
          </mxGeometry>
        </mxCell>
        <mxCell id="ru2hNwoar7phW9bpmIqV-23" value="visualizar equipos" style="ellipse;whiteSpace=wrap;html=1;" parent="1" vertex="1">
          <mxGeometry x="275" y="280" width="90" height="34" as="geometry" />
        </mxCell>
        <mxCell id="ru2hNwoar7phW9bpmIqV-24" value="" style="endArrow=none;html=1;rounded=0;exitX=0.5;exitY=0.5;exitDx=0;exitDy=0;exitPerimeter=0;entryX=0;entryY=0.5;entryDx=0;entryDy=0;" parent="1" source="ru2hNwoar7phW9bpmIqV-2" target="ru2hNwoar7phW9bpmIqV-23" edge="1">
          <mxGeometry width="50" height="50" relative="1" as="geometry">
            <mxPoint x="175" y="400" as="sourcePoint" />
            <mxPoint x="290" y="335" as="targetPoint" />
          </mxGeometry>
        </mxCell>
        <mxCell id="ru2hNwoar7phW9bpmIqV-25" value="" style="endArrow=none;html=1;rounded=0;exitX=0.5;exitY=0.5;exitDx=0;exitDy=0;exitPerimeter=0;entryX=0;entryY=0.5;entryDx=0;entryDy=0;" parent="1" source="ru2hNwoar7phW9bpmIqV-1" target="ru2hNwoar7phW9bpmIqV-23" edge="1">
          <mxGeometry width="50" height="50" relative="1" as="geometry">
            <mxPoint x="175" y="230" as="sourcePoint" />
            <mxPoint x="300" y="335" as="targetPoint" />
          </mxGeometry>
        </mxCell>
        <mxCell id="ru2hNwoar7phW9bpmIqV-26" value="añadir/modificar equipo" style="ellipse;whiteSpace=wrap;html=1;flipV=0;" parent="1" vertex="1">
          <mxGeometry x="420" y="203" width="95" height="50" as="geometry" />
        </mxCell>
        <mxCell id="ru2hNwoar7phW9bpmIqV-27" value="" style="endArrow=none;html=1;rounded=0;exitX=0.5;exitY=0.5;exitDx=0;exitDy=0;exitPerimeter=0;entryX=1;entryY=0.5;entryDx=0;entryDy=0;" parent="1" source="ru2hNwoar7phW9bpmIqV-3" target="ru2hNwoar7phW9bpmIqV-26" edge="1">
          <mxGeometry width="50" height="50" relative="1" as="geometry">
            <mxPoint x="335" y="270" as="sourcePoint" />
            <mxPoint x="450" y="215" as="targetPoint" />
          </mxGeometry>
        </mxCell>
        <mxCell id="ru2hNwoar7phW9bpmIqV-28" value="añadir/modificar partido" style="ellipse;whiteSpace=wrap;html=1;flipV=0;" parent="1" vertex="1">
          <mxGeometry x="410" y="370" width="110" height="40" as="geometry" />
        </mxCell>
        <mxCell id="ru2hNwoar7phW9bpmIqV-29" value="" style="endArrow=none;html=1;rounded=0;exitX=0.5;exitY=0.5;exitDx=0;exitDy=0;exitPerimeter=0;entryX=1;entryY=0.5;entryDx=0;entryDy=0;" parent="1" source="ru2hNwoar7phW9bpmIqV-3" target="ru2hNwoar7phW9bpmIqV-28" edge="1">
          <mxGeometry width="50" height="50" relative="1" as="geometry">
            <mxPoint x="640" y="340" as="sourcePoint" />
            <mxPoint x="450" y="255" as="targetPoint" />
          </mxGeometry>
        </mxCell>
        <mxCell id="ru2hNwoar7phW9bpmIqV-34" value="modificar contraseña" style="ellipse;whiteSpace=wrap;html=1;" parent="1" vertex="1">
          <mxGeometry x="280" y="166" width="80" height="37" as="geometry" />
        </mxCell>
        <mxCell id="ru2hNwoar7phW9bpmIqV-35" value="" style="endArrow=none;html=1;rounded=0;exitX=0.5;exitY=0.5;exitDx=0;exitDy=0;exitPerimeter=0;entryX=0;entryY=0.5;entryDx=0;entryDy=0;" parent="1" source="ru2hNwoar7phW9bpmIqV-1" target="ru2hNwoar7phW9bpmIqV-34" edge="1">
          <mxGeometry width="50" height="50" relative="1" as="geometry">
            <mxPoint x="185" y="230" as="sourcePoint" />
            <mxPoint x="300" y="215" as="targetPoint" />
          </mxGeometry>
        </mxCell>
        <mxCell id="ru2hNwoar7phW9bpmIqV-38" value="visualizar partidos" style="ellipse;whiteSpace=wrap;html=1;" parent="1" vertex="1">
          <mxGeometry x="275" y="335" width="90" height="35" as="geometry" />
        </mxCell>
        <mxCell id="ru2hNwoar7phW9bpmIqV-39" value="" style="endArrow=none;html=1;rounded=0;exitX=0.5;exitY=0.5;exitDx=0;exitDy=0;exitPerimeter=0;entryX=0;entryY=0.5;entryDx=0;entryDy=0;" parent="1" source="ru2hNwoar7phW9bpmIqV-2" target="ru2hNwoar7phW9bpmIqV-38" edge="1">
          <mxGeometry width="50" height="50" relative="1" as="geometry">
            <mxPoint x="175" y="400" as="sourcePoint" />
            <mxPoint x="290" y="375" as="targetPoint" />
          </mxGeometry>
        </mxCell>
        <mxCell id="ru2hNwoar7phW9bpmIqV-40" value="" style="endArrow=none;html=1;rounded=0;exitX=0.5;exitY=0.5;exitDx=0;exitDy=0;exitPerimeter=0;entryX=0;entryY=0.5;entryDx=0;entryDy=0;" parent="1" source="ru2hNwoar7phW9bpmIqV-1" target="ru2hNwoar7phW9bpmIqV-38" edge="1">
          <mxGeometry width="50" height="50" relative="1" as="geometry">
            <mxPoint x="175" y="230" as="sourcePoint" />
            <mxPoint x="300" y="375" as="targetPoint" />
          </mxGeometry>
        </mxCell>
        <mxCell id="ru2hNwoar7phW9bpmIqV-43" value="añadir/modificar jugador" style="ellipse;whiteSpace=wrap;html=1;flipV=0;" parent="1" vertex="1">
          <mxGeometry x="425" y="81.25" width="100" height="40" as="geometry" />
        </mxCell>
        <mxCell id="ru2hNwoar7phW9bpmIqV-44" value="" style="endArrow=none;html=1;rounded=0;exitX=0.5;exitY=0.5;exitDx=0;exitDy=0;exitPerimeter=0;entryX=1;entryY=0.5;entryDx=0;entryDy=0;" parent="1" source="ru2hNwoar7phW9bpmIqV-3" target="ru2hNwoar7phW9bpmIqV-43" edge="1">
          <mxGeometry width="50" height="50" relative="1" as="geometry">
            <mxPoint x="680" y="287.75" as="sourcePoint" />
            <mxPoint x="455" y="135.75" as="targetPoint" />
          </mxGeometry>
        </mxCell>
        <mxCell id="ru2hNwoar7phW9bpmIqV-47" value="realizar predicción" style="ellipse;whiteSpace=wrap;html=1;" parent="1" vertex="1">
          <mxGeometry x="280" y="54.5" width="80" height="36" as="geometry" />
        </mxCell>
        <mxCell id="ru2hNwoar7phW9bpmIqV-48" value="" style="endArrow=none;html=1;rounded=0;entryX=0;entryY=0.5;entryDx=0;entryDy=0;exitX=0.5;exitY=0.5;exitDx=0;exitDy=0;exitPerimeter=0;" parent="1" source="ru2hNwoar7phW9bpmIqV-1" target="ru2hNwoar7phW9bpmIqV-47" edge="1">
          <mxGeometry width="50" height="50" relative="1" as="geometry">
            <mxPoint x="170" y="190" as="sourcePoint" />
            <mxPoint x="290" y="95" as="targetPoint" />
          </mxGeometry>
        </mxCell>
        <mxCell id="ru2hNwoar7phW9bpmIqV-49" value="" style="endArrow=none;html=1;rounded=0;entryX=1;entryY=0.5;entryDx=0;entryDy=0;exitX=0.5;exitY=0.5;exitDx=0;exitDy=0;exitPerimeter=0;" parent="1" source="ru2hNwoar7phW9bpmIqV-3" target="ru2hNwoar7phW9bpmIqV-47" edge="1">
          <mxGeometry width="50" height="50" relative="1" as="geometry">
            <mxPoint x="530" y="160" as="sourcePoint" />
            <mxPoint x="300" y="105" as="targetPoint" />
          </mxGeometry>
        </mxCell>
        <mxCell id="W2gP4M4yLTLJ7H_n7yjI-1" value="iniciar sesión" style="ellipse;whiteSpace=wrap;html=1;" parent="1" vertex="1">
          <mxGeometry x="280" y="450" width="80" height="30" as="geometry" />
        </mxCell>
        <mxCell id="W2gP4M4yLTLJ7H_n7yjI-3" value="" style="endArrow=none;html=1;rounded=0;entryX=0;entryY=0.5;entryDx=0;entryDy=0;exitX=0.5;exitY=0.5;exitDx=0;exitDy=0;exitPerimeter=0;" parent="1" source="ru2hNwoar7phW9bpmIqV-2" target="W2gP4M4yLTLJ7H_n7yjI-1" edge="1">
          <mxGeometry width="50" height="50" relative="1" as="geometry">
            <mxPoint x="140" y="360" as="sourcePoint" />
            <mxPoint x="280" y="470" as="targetPoint" />
          </mxGeometry>
        </mxCell>
        <mxCell id="W2gP4M4yLTLJ7H_n7yjI-5" value="" style="endArrow=none;html=1;rounded=0;entryX=1;entryY=0.5;entryDx=0;entryDy=0;exitX=0.5;exitY=0.5;exitDx=0;exitDy=0;exitPerimeter=0;" parent="1" target="ru2hNwoar7phW9bpmIqV-19" edge="1" source="ru2hNwoar7phW9bpmIqV-3">
          <mxGeometry width="50" height="50" relative="1" as="geometry">
            <mxPoint x="640" y="300" as="sourcePoint" />
            <mxPoint x="370" y="278" as="targetPoint" />
          </mxGeometry>
        </mxCell>
        <mxCell id="W2gP4M4yLTLJ7H_n7yjI-6" value="" style="endArrow=none;html=1;rounded=0;entryX=1;entryY=0.5;entryDx=0;entryDy=0;exitX=0.5;exitY=0.5;exitDx=0;exitDy=0;exitPerimeter=0;" parent="1" target="ru2hNwoar7phW9bpmIqV-23" edge="1" source="ru2hNwoar7phW9bpmIqV-3">
          <mxGeometry width="50" height="50" relative="1" as="geometry">
            <mxPoint x="640" y="300" as="sourcePoint" />
            <mxPoint x="380" y="288" as="targetPoint" />
          </mxGeometry>
        </mxCell>
        <mxCell id="EuqJdyhRISb5Iu6oAzzc-1" value="API Predicción La Liga (simpliificado)" style="text;html=1;align=center;verticalAlign=middle;resizable=0;points=[];autosize=1;strokeColor=none;fillColor=none;" parent="1" vertex="1">
          <mxGeometry x="202.5" y="20" width="220" height="30" as="geometry" />
        </mxCell>
        <mxCell id="EuqJdyhRISb5Iu6oAzzc-3" value="" style="endArrow=none;html=1;rounded=0;exitX=1;exitY=0.5;exitDx=0;exitDy=0;entryX=0.5;entryY=0.5;entryDx=0;entryDy=0;entryPerimeter=0;" parent="1" source="ru2hNwoar7phW9bpmIqV-38" target="ru2hNwoar7phW9bpmIqV-3" edge="1">
          <mxGeometry width="50" height="50" relative="1" as="geometry">
            <mxPoint x="400" y="390" as="sourcePoint" />
            <mxPoint x="630" y="310" as="targetPoint" />
          </mxGeometry>
        </mxCell>
        <mxCell id="5m6bmjcv6xlwHMcxijgE-1" value="actualizar modelo de aprendizaje" style="ellipse;whiteSpace=wrap;html=1;flipV=0;" vertex="1" parent="1">
          <mxGeometry x="410" y="420" width="110" height="44" as="geometry" />
        </mxCell>
        <mxCell id="5m6bmjcv6xlwHMcxijgE-2" value="" style="endArrow=none;html=1;rounded=0;entryX=1;entryY=0.5;entryDx=0;entryDy=0;exitX=0.5;exitY=0.5;exitDx=0;exitDy=0;exitPerimeter=0;" edge="1" parent="1" target="5m6bmjcv6xlwHMcxijgE-1" source="ru2hNwoar7phW9bpmIqV-3">
          <mxGeometry width="50" height="50" relative="1" as="geometry">
            <mxPoint x="640" y="354" as="sourcePoint" />
            <mxPoint x="450" y="309" as="targetPoint" />
          </mxGeometry>
        </mxCell>
      </root>
    </mxGraphModel>
  </diagram>
</mxfile>
